HIERARCHY
ROOT joint_Root
{
	OFFSET 0.0 0.0 0.0
	CHANNELS 6 Xposition Yposition Zposition Zrotation Xrotation Yrotation 
	JOINT Hips
	{
		OFFSET 4.5925 91.4895 -427.239
		CHANNELS 6 Xposition Yposition Zposition Zrotation Xrotation Yrotation 
		JOINT Spine
		{
			OFFSET 15.7357 0.0 0.0
			CHANNELS 6 Xposition Yposition Zposition Zrotation Xrotation Yrotation 
			JOINT Chest
			{
				OFFSET 8.98455 -0.406207 0.0
				CHANNELS 6 Xposition Yposition Zposition Zrotation Xrotation Yrotation 
				JOINT Neck
				{
					OFFSET 16.3773 0.0 0.0
					CHANNELS 6 Xposition Yposition Zposition Zrotation Xrotation Yrotation 
					JOINT Head
					{
						OFFSET 6.45672 0.0 0.0
						CHANNELS 6 Xposition Yposition Zposition Zrotation Xrotation Yrotation 
						End Site
						{
							OFFSET 0.0 0.0 0.0
						}
					}
				}
				JOINT Shoulder_L
				{
					OFFSET 12.9942 -0.242716 4.98039
					CHANNELS 6 Xposition Yposition Zposition Zrotation Xrotation Yrotation 
					JOINT UpperArm_L
					{
						OFFSET 5.34809 0.0 0.0
						CHANNELS 6 Xposition Yposition Zposition Zrotation Xrotation Yrotation 
						JOINT LowerArm_L
						{
							OFFSET 24.3286 1.87007e-05 0.0
							CHANNELS 6 Xposition Yposition Zposition Zrotation Xrotation Yrotation 
							JOINT Hand_L
							{
								OFFSET 22.2916 0.0 0.0
								CHANNELS 6 Xposition Yposition Zposition Zrotation Xrotation Yrotation 
								End Site
								{
									OFFSET 0.0 0.0 0.0
								}
							}
						}
					}
				}
				JOINT Shoulder_R
				{
					OFFSET 12.9945 -0.242716 -4.98039
					CHANNELS 6 Xposition Yposition Zposition Zrotation Xrotation Yrotation 
					JOINT UpperArm_R
					{
						OFFSET -5.34813 0.0 0.0
						CHANNELS 6 Xposition Yposition Zposition Zrotation Xrotation Yrotation 
						JOINT LowerArm_R
						{
							OFFSET -24.3289 0.000322201 0.0
							CHANNELS 6 Xposition Yposition Zposition Zrotation Xrotation Yrotation 
							JOINT Hand_R
							{
								OFFSET -22.2915 -0.000108084 0.0
								CHANNELS 6 Xposition Yposition Zposition Zrotation Xrotation Yrotation 
								End Site
								{
									OFFSET 0.0 0.0 0.0
								}
							}
						}
					}
				}
			}
		}
		JOINT UpperLeg_L
		{
			OFFSET -2.19248 -6.46944 0.0
			CHANNELS 6 Xposition Yposition Zposition Zrotation Xrotation Yrotation 
			JOINT LowerLeg_L
			{
				OFFSET 39.0811 0.0 -1.23785e-05
				CHANNELS 6 Xposition Yposition Zposition Zrotation Xrotation Yrotation 
				JOINT Foot_L
				{
					OFFSET 40.9854 0.0 -1.26872e-05
					CHANNELS 6 Xposition Yposition Zposition Zrotation Xrotation Yrotation 
					JOINT Toes_L
					{
						OFFSET 11.7543 0.0 0.0
						CHANNELS 6 Xposition Yposition Zposition Zrotation Xrotation Yrotation 
						End Site
						{
							OFFSET 0.0 0.0 0.0
						}
					}
				}
			}
		}
		JOINT UpperLeg_R
		{
			OFFSET -2.19251 6.46944 0.0
			CHANNELS 6 Xposition Yposition Zposition Zrotation Xrotation Yrotation 
			JOINT LowerLeg_R
			{
				OFFSET -39.0811 -0.00228153 -0.0401928
				CHANNELS 6 Xposition Yposition Zposition Zrotation Xrotation Yrotation 
				JOINT Foot_R
				{
					OFFSET -40.9854 0.0 0.0
					CHANNELS 6 Xposition Yposition Zposition Zrotation Xrotation Yrotation 
					JOINT Toes_R
					{
						OFFSET -11.7543 0.0 0.0
						CHANNELS 6 Xposition Yposition Zposition Zrotation Xrotation Yrotation 
						End Site
						{
							OFFSET 0.0 0.0 0.0
						}
					}
				}
			}
		}
	}
}
MOTION
Frames:	4
Frame Time:	0.0333333
0.000000 0.000000 0.000000 0.000000 0.000000 -0.000000 -1.672500 92.355500 0.424587 89.202200 0.494942 2.228680 15.735700 0.000005 -0.000001 73.769800 87.520600 -73.375800 8.984550 -0.406207 -0.000000 -3.000300 -1.422380 0.750859 16.377300 -0.000001 -0.000001 4.437950 -3.055070 1.712270 6.456720 -0.000001 -0.000000 -1.670090 -2.515180 1.938710 12.994200 -0.242716 4.980390 -83.402900 -11.450800 -59.776800 5.348090 -0.000007 -0.000001 -67.080800 -64.334300 -108.894000 24.328600 0.000019 0.000005 6.570090 5.958540 -47.972300 22.291600 -0.000001 0.000005 17.601600 5.323260 -0.589590 12.994500 -0.242716 -4.980390 95.084000 -11.231400 -65.450400 -5.348130 -0.000001 -0.000004 -47.872800 -68.670900 -90.866100 -24.328900 0.000322 -0.000009 -6.616090 -7.017110 -43.509600 -22.291500 -0.000108 -0.000004 22.088000 5.537930 -8.148540 -2.192480 -6.469440 -0.000000 -174.909000 -13.361100 -3.620540 39.081100 -0.000007 -0.000012 -0.091247 0.234805 21.236500 40.985400 -0.000006 -0.000013 -0.245075 9.959220 -65.227100 11.754300 -0.000000 0.000003 -0.000128 -0.001267 -16.625900 -2.192510 6.469440 -0.000001 177.537000 24.106700 177.577000 -39.081100 -0.002282 -0.040193 0.010322 -0.017963 21.297600 -40.985400 0.000008 0.000006 6.476180 13.602300 -67.066300 -11.754300 -0.000006 -0.000006 -0.001907 -0.027550 -17.693400
0.000000 0.000000 0.000000 0.000000 0.000000 -0.000000 -1.695880 92.366100 0.367275 89.151300 0.604922 2.234060 15.735700 0.000005 -0.000001 74.308800 87.434100 -73.903900 8.984550 -0.406207 -0.000000 -2.820670 -1.424780 0.774710 16.377300 -0.000001 -0.000001 4.289910 -3.203880 1.705390 6.456720 -0.000001 -0.000000 -1.846500 -2.610960 2.037990 12.994200 -0.242716 4.980390 -83.739100 -10.903700 -59.886600 5.348090 -0.000007 -0.000001 -63.317000 -64.120900 -104.230000 24.328600 0.000019 0.000005 6.123650 5.036910 -50.709700 22.291600 -0.000001 0.000005 17.303300 5.322460 -0.567679 12.994500 -0.242716 -4.980390 94.841400 -10.870200 -65.813500 -5.348130 -0.000001 -0.000004 -42.849300 -68.175900 -84.655700 -24.328900 0.000322 -0.000009 -6.612720 -6.406700 -46.090000 -22.291500 -0.000108 -0.000004 21.941200 5.522600 -7.472770 -2.192480 -6.469440 -0.000000 -174.859000 -13.254300 -3.667080 39.081100 -0.000007 -0.000012 -0.092394 0.237831 21.230600 40.985400 -0.000006 -0.000013 -0.259024 9.951480 -65.177400 11.754300 -0.000000 0.000003 -0.000130 -0.001288 -16.626700 -2.192510 6.469440 -0.000001 177.574000 24.390900 177.710000 -39.081100 -0.002282 -0.040193 0.009783 -0.016796 21.046400 -40.985400 0.000008 0.000006 6.418420 13.784400 -67.032000 -11.754300 -0.000006 -0.000006 -0.001913 -0.027622 -17.696300
0.000000 0.000000 0.000000 0.000000 0.000000 -0.000000 -1.726480 92.377100 0.351691 89.118200 0.676851 2.317910 15.735700 0.000005 -0.000001 75.176900 87.310400 -74.773300 8.984550 -0.406207 -0.000000 -2.561060 -1.412100 0.775602 16.377300 -0.000001 -0.000001 4.082020 -3.313160 1.678510 6.456720 -0.000001 -0.000000 -2.165520 -2.701800 2.209610 12.994200 -0.242716 4.980390 -84.120800 -10.345900 -60.171100 5.348090 -0.000007 -0.000001 -57.490500 -63.557400 -96.466500 24.328600 0.000019 0.000005 5.362850 3.808880 -54.722100 22.291600 -0.000001 0.000005 16.757600 5.327230 -0.704665 12.994500 -0.242716 -4.980390 94.508200 -10.359100 -66.323800 -5.348130 -0.000001 -0.000004 -37.177200 -66.828100 -76.778300 -24.328900 0.000322 -0.000009 -6.578040 -5.540430 -50.059400 -22.291500 -0.000108 -0.000004 21.633100 5.505100 -6.738920 -2.192480 -6.469440 -0.000000 -174.826000 -12.843800 -3.597000 39.081100 -0.000007 -0.000012 -0.093401 0.241074 21.178200 40.985400 -0.000006 -0.000013 -0.347481 9.657080 -65.122900 11.754300 -0.000000 0.000003 -0.000137 -0.001341 -16.628700 -2.192510 6.469440 -0.000001 177.558000 24.598300 177.988000 -39.081100 -0.002282 -0.040193 0.009095 -0.015255 20.734000 -40.985400 0.000008 0.000006 6.401160 13.963800 -67.048000 -11.754300 -0.000006 -0.000006 -0.001724 -0.025203 -17.597900
0.000000 0.000000 0.000000 0.000000 0.000000 -0.000000 -1.751600 92.386400 0.354878 89.092200 0.736055 2.486940 15.735700 0.000005 -0.000001 75.319700 87.158800 -74.897600 8.984550 -0.406207 -0.000000 -2.263790 -1.476600 0.815159 16.377300 -0.000001 -0.000001 3.796800 -3.317090 1.600280 6.456720 -0.000001 -0.000000 -2.471020 -2.771000 2.298830 12.994200 -0.242716 4.980390 -84.612800 -9.625480 -60.578000 5.348090 -0.000007 -0.000001 -49.926900 -62.001600 -86.016800 24.328600 0.000019 0.000005 4.749470 2.775290 -59.773100 22.291600 -0.000001 0.000005 16.278000 5.328950 -0.755014 12.994500 -0.242716 -4.980390 94.058800 -9.655600 -67.069100 -5.348130 -0.000001 -0.000004 -31.291400 -64.355800 -67.978400 -24.328900 0.000322 -0.000009 -6.733210 -4.733730 -55.042200 -22.291500 -0.000108 -0.000004 21.230300 5.492610 -6.236170 -2.192480 -6.469440 -0.000000 -174.803000 -12.391700 -3.397990 39.081100 -0.000007 -0.000012 -0.093961 0.243346 21.112600 40.985400 -0.000006 -0.000013 -0.430104 9.287630 -65.100500 11.754300 -0.000000 0.000003 -0.000128 -0.001273 -16.626100 -2.192510 6.469440 -0.000001 177.453000 25.011900 178.419000 -39.081100 -0.002282 -0.040193 0.008739 -0.014575 20.391700 -40.985400 0.000008 0.000006 6.576150 14.275000 -67.176000 -11.754300 -0.000006 -0.000006 -0.001853 -0.026862 -17.665400
